<?xml version="1.0" encoding="UTF-8"?>
<svg xmlns="http://www.w3.org/2000/svg" viewBox="0 0 800 418" font-family="system-ui,-apple-system,sans-serif">
  <defs>
    <linearGradient id="bg" x1="0" y1="0" x2="1" y2="1">
      <stop offset="0%" stop-color="#0f172a"/>
      <stop offset="100%" stop-color="#1e293b"/>
    </linearGradient>
  </defs>
  <rect width="800" height="418" fill="url(#bg)" rx="12"/>

  <!-- Title -->
  <text x="400" y="42" text-anchor="middle" fill="#f8fafc" font-size="22" font-weight="700">Olympic Schedule 2026</text>
  <text x="400" y="66" text-anchor="middle" fill="#94a3b8" font-size="13">When Complexity Peaks &#xB7; Milan-Cortina</text>

  <!-- Heatmap grid (simplified 8 disciplines x 10 date columns) -->
  <g transform="translate(180, 85)">
    <!-- Column headers (dates) -->
    <text x="25"  y="-5" text-anchor="middle" fill="#64748b" font-size="8">Feb 4</text>
    <text x="75"  y="-5" text-anchor="middle" fill="#64748b" font-size="8">6</text>
    <text x="125" y="-5" text-anchor="middle" fill="#64748b" font-size="8">8</text>
    <text x="175" y="-5" text-anchor="middle" fill="#64748b" font-size="8">10</text>
    <text x="225" y="-5" text-anchor="middle" fill="#64748b" font-size="8">12</text>
    <text x="275" y="-5" text-anchor="middle" fill="#64748b" font-size="8">14</text>
    <text x="325" y="-5" text-anchor="middle" fill="#64748b" font-size="8">16</text>
    <text x="375" y="-5" text-anchor="middle" fill="#64748b" font-size="8">18</text>
    <text x="425" y="-5" text-anchor="middle" fill="#64748b" font-size="8">20</text>
    <text x="475" y="-5" text-anchor="middle" fill="#64748b" font-size="8">22</text>

    <!-- Row labels -->
    <text x="-10" y="20"  text-anchor="end" fill="#94a3b8" font-size="9">Curling</text>
    <text x="-10" y="52"  text-anchor="end" fill="#94a3b8" font-size="9">Alpine</text>
    <text x="-10" y="84"  text-anchor="end" fill="#94a3b8" font-size="9">Ice Hockey</text>
    <text x="-10" y="116" text-anchor="end" fill="#94a3b8" font-size="9">Biathlon</text>
    <text x="-10" y="148" text-anchor="end" fill="#94a3b8" font-size="9">X-Country</text>
    <text x="-10" y="180" text-anchor="end" fill="#94a3b8" font-size="9">Freestyle</text>
    <text x="-10" y="212" text-anchor="end" fill="#94a3b8" font-size="9">Figure Sk.</text>
    <text x="-10" y="244" text-anchor="end" fill="#94a3b8" font-size="9">Ski Jump</text>

    <!-- Heatmap cells (10 cols x 8 rows, color intensity = event density) -->
    <!-- Curling (runs throughout) -->
    <rect x="5"   y="8"  width="40" height="22" fill="#e63946" rx="2" opacity="0.7"/>
    <rect x="55"  y="8"  width="40" height="22" fill="#e63946" rx="2" opacity="0.8"/>
    <rect x="105" y="8"  width="40" height="22" fill="#e63946" rx="2" opacity="0.9"/>
    <rect x="155" y="8"  width="40" height="22" fill="#e63946" rx="2" opacity="0.9"/>
    <rect x="205" y="8"  width="40" height="22" fill="#e63946" rx="2" opacity="1.0"/>
    <rect x="255" y="8"  width="40" height="22" fill="#e63946" rx="2" opacity="0.9"/>
    <rect x="305" y="8"  width="40" height="22" fill="#e63946" rx="2" opacity="0.8"/>
    <rect x="355" y="8"  width="40" height="22" fill="#e63946" rx="2" opacity="0.7"/>
    <rect x="405" y="8"  width="40" height="22" fill="#e63946" rx="2" opacity="0.6"/>
    <rect x="455" y="8"  width="40" height="22" fill="#e63946" rx="2" opacity="0.4"/>

    <!-- Alpine (early training, mid competition) -->
    <rect x="5"   y="40" width="40" height="22" fill="#3b82f6" rx="2" opacity="0.3"/>
    <rect x="55"  y="40" width="40" height="22" fill="#3b82f6" rx="2" opacity="0.5"/>
    <rect x="105" y="40" width="40" height="22" fill="#3b82f6" rx="2" opacity="0.7"/>
    <rect x="155" y="40" width="40" height="22" fill="#3b82f6" rx="2" opacity="0.9"/>
    <rect x="205" y="40" width="40" height="22" fill="#3b82f6" rx="2" opacity="0.8"/>
    <rect x="255" y="40" width="40" height="22" fill="#3b82f6" rx="2" opacity="0.9"/>
    <rect x="305" y="40" width="40" height="22" fill="#3b82f6" rx="2" opacity="0.7"/>
    <rect x="355" y="40" width="40" height="22" fill="#3b82f6" rx="2" opacity="0.5"/>
    <rect x="405" y="40" width="40" height="22" fill="#3b82f6" rx="2" opacity="0.4"/>
    <rect x="455" y="40" width="40" height="22" fill="#3b82f6" rx="2" opacity="0.2"/>

    <!-- Ice Hockey (mid-to-late) -->
    <rect x="5"   y="72" width="40" height="22" fill="#1e293b" rx="2" opacity="0.2"/>
    <rect x="55"  y="72" width="40" height="22" fill="#f59e0b" rx="2" opacity="0.3"/>
    <rect x="105" y="72" width="40" height="22" fill="#f59e0b" rx="2" opacity="0.5"/>
    <rect x="155" y="72" width="40" height="22" fill="#f59e0b" rx="2" opacity="0.7"/>
    <rect x="205" y="72" width="40" height="22" fill="#f59e0b" rx="2" opacity="0.9"/>
    <rect x="255" y="72" width="40" height="22" fill="#f59e0b" rx="2" opacity="1.0"/>
    <rect x="305" y="72" width="40" height="22" fill="#f59e0b" rx="2" opacity="0.9"/>
    <rect x="355" y="72" width="40" height="22" fill="#f59e0b" rx="2" opacity="0.8"/>
    <rect x="405" y="72" width="40" height="22" fill="#f59e0b" rx="2" opacity="0.6"/>
    <rect x="455" y="72" width="40" height="22" fill="#f59e0b" rx="2" opacity="0.4"/>

    <!-- Biathlon (scattered) -->
    <rect x="5"   y="104" width="40" height="22" fill="#1e293b" rx="2" opacity="0.2"/>
    <rect x="55"  y="104" width="40" height="22" fill="#10b981" rx="2" opacity="0.4"/>
    <rect x="105" y="104" width="40" height="22" fill="#1e293b" rx="2" opacity="0.2"/>
    <rect x="155" y="104" width="40" height="22" fill="#10b981" rx="2" opacity="0.7"/>
    <rect x="205" y="104" width="40" height="22" fill="#1e293b" rx="2" opacity="0.2"/>
    <rect x="255" y="104" width="40" height="22" fill="#10b981" rx="2" opacity="0.8"/>
    <rect x="305" y="104" width="40" height="22" fill="#1e293b" rx="2" opacity="0.2"/>
    <rect x="355" y="104" width="40" height="22" fill="#10b981" rx="2" opacity="0.6"/>
    <rect x="405" y="104" width="40" height="22" fill="#10b981" rx="2" opacity="0.4"/>
    <rect x="455" y="104" width="40" height="22" fill="#1e293b" rx="2" opacity="0.2"/>

    <!-- Cross-Country (scattered) -->
    <rect x="5"   y="136" width="40" height="22" fill="#1e293b" rx="2" opacity="0.2"/>
    <rect x="55"  y="136" width="40" height="22" fill="#8b5cf6" rx="2" opacity="0.5"/>
    <rect x="105" y="136" width="40" height="22" fill="#8b5cf6" rx="2" opacity="0.3"/>
    <rect x="155" y="136" width="40" height="22" fill="#1e293b" rx="2" opacity="0.2"/>
    <rect x="205" y="136" width="40" height="22" fill="#8b5cf6" rx="2" opacity="0.6"/>
    <rect x="255" y="136" width="40" height="22" fill="#8b5cf6" rx="2" opacity="0.4"/>
    <rect x="305" y="136" width="40" height="22" fill="#1e293b" rx="2" opacity="0.2"/>
    <rect x="355" y="136" width="40" height="22" fill="#8b5cf6" rx="2" opacity="0.7"/>
    <rect x="405" y="136" width="40" height="22" fill="#8b5cf6" rx="2" opacity="0.5"/>
    <rect x="455" y="136" width="40" height="22" fill="#1e293b" rx="2" opacity="0.2"/>

    <!-- Freestyle (mid-games burst) -->
    <rect x="5"   y="168" width="40" height="22" fill="#1e293b" rx="2" opacity="0.2"/>
    <rect x="55"  y="168" width="40" height="22" fill="#1e293b" rx="2" opacity="0.2"/>
    <rect x="105" y="168" width="40" height="22" fill="#06b6d4" rx="2" opacity="0.4"/>
    <rect x="155" y="168" width="40" height="22" fill="#06b6d4" rx="2" opacity="0.7"/>
    <rect x="205" y="168" width="40" height="22" fill="#06b6d4" rx="2" opacity="0.9"/>
    <rect x="255" y="168" width="40" height="22" fill="#06b6d4" rx="2" opacity="0.8"/>
    <rect x="305" y="168" width="40" height="22" fill="#06b6d4" rx="2" opacity="0.5"/>
    <rect x="355" y="168" width="40" height="22" fill="#1e293b" rx="2" opacity="0.2"/>
    <rect x="405" y="168" width="40" height="22" fill="#1e293b" rx="2" opacity="0.2"/>
    <rect x="455" y="168" width="40" height="22" fill="#1e293b" rx="2" opacity="0.2"/>

    <!-- Figure Skating (specific windows) -->
    <rect x="5"   y="200" width="40" height="22" fill="#1e293b" rx="2" opacity="0.2"/>
    <rect x="55"  y="200" width="40" height="22" fill="#ec4899" rx="2" opacity="0.5"/>
    <rect x="105" y="200" width="40" height="22" fill="#ec4899" rx="2" opacity="0.7"/>
    <rect x="155" y="200" width="40" height="22" fill="#1e293b" rx="2" opacity="0.2"/>
    <rect x="205" y="200" width="40" height="22" fill="#ec4899" rx="2" opacity="0.8"/>
    <rect x="255" y="200" width="40" height="22" fill="#ec4899" rx="2" opacity="0.6"/>
    <rect x="305" y="200" width="40" height="22" fill="#1e293b" rx="2" opacity="0.2"/>
    <rect x="355" y="200" width="40" height="22" fill="#1e293b" rx="2" opacity="0.2"/>
    <rect x="405" y="200" width="40" height="22" fill="#ec4899" rx="2" opacity="0.5"/>
    <rect x="455" y="200" width="40" height="22" fill="#1e293b" rx="2" opacity="0.2"/>

    <!-- Ski Jumping (brief windows) -->
    <rect x="5"   y="232" width="40" height="22" fill="#1e293b" rx="2" opacity="0.2"/>
    <rect x="55"  y="232" width="40" height="22" fill="#84cc16" rx="2" opacity="0.4"/>
    <rect x="105" y="232" width="40" height="22" fill="#1e293b" rx="2" opacity="0.2"/>
    <rect x="155" y="232" width="40" height="22" fill="#84cc16" rx="2" opacity="0.6"/>
    <rect x="205" y="232" width="40" height="22" fill="#1e293b" rx="2" opacity="0.2"/>
    <rect x="255" y="232" width="40" height="22" fill="#1e293b" rx="2" opacity="0.2"/>
    <rect x="305" y="232" width="40" height="22" fill="#84cc16" rx="2" opacity="0.5"/>
    <rect x="355" y="232" width="40" height="22" fill="#1e293b" rx="2" opacity="0.2"/>
    <rect x="405" y="232" width="40" height="22" fill="#84cc16" rx="2" opacity="0.4"/>
    <rect x="455" y="232" width="40" height="22" fill="#1e293b" rx="2" opacity="0.2"/>
  </g>

  <!-- Callout bar -->
  <rect x="50" y="360" width="700" height="28" fill="#1e293b" rx="6"/>
  <text x="400" y="379" text-anchor="middle" fill="#f59e0b" font-size="12" font-weight="600">
    1,866 events &#xB7; 16 disciplines &#xB7; 20 days &#x2014; where density peaks matters
  </text>

  <!-- Footer -->
  <text x="400" y="408" text-anchor="middle" fill="#64748b" font-size="10">TidyTuesday 2026-02-10 &#xB7; Milan-Cortina 2026 &#xB7; chokotto</text>
</svg>
