<?xml version="1.0" encoding="UTF-8"?>
<svg xmlns="http://www.w3.org/2000/svg" width="800" height="400" viewBox="0 0 800 400">
  <defs>
    <linearGradient id="bgMm" x1="0%" y1="0%" x2="100%" y2="100%">
      <stop offset="0%" style="stop-color:#f8fafc;stop-opacity:1" />
      <stop offset="100%" style="stop-color:#e2e8f0;stop-opacity:1" />
    </linearGradient>
  </defs>
  <rect fill="url(#bgMm)" width="800" height="400"/>

  <!-- Title -->
  <text x="400" y="38" text-anchor="middle" font-family="Arial, sans-serif" font-size="20" font-weight="bold" fill="#1e293b">Attention Dashboard</text>
  <text x="400" y="60" text-anchor="middle" font-family="Arial, sans-serif" font-size="13" fill="#64748b">SOFI vs IONQ &#xB7; z-score &#xB7; Bottom Candidates</text>

  <!-- Price line (stylized) -->
  <polyline points="80,140 130,135 180,150 230,130 280,145 330,125 380,155 430,140 480,120 530,135 580,128 630,115 680,130"
            fill="none" stroke="#6366f1" stroke-width="2.5" stroke-linejoin="round"/>

  <!-- Bottom candidate markers -->
  <polygon points="230,127 225,117 235,117" fill="#ef4444"/>
  <polygon points="380,152 375,142 385,142" fill="#ef4444"/>

  <!-- z-score line -->
  <polyline points="80,240 130,250 180,265 230,280 280,255 330,245 380,278 430,260 480,242 530,250 580,235 630,225 680,240"
            fill="none" stroke="#8b5cf6" stroke-width="2" stroke-dasharray="6,3" stroke-linejoin="round"/>

  <!-- z = -1.5 threshold line -->
  <line x1="80" y1="275" x2="700" y2="275" stroke="#ef4444" stroke-width="1" stroke-dasharray="4,4" opacity="0.6"/>
  <text x="710" y="279" font-family="Arial, sans-serif" font-size="10" fill="#ef4444">z=-1.5</text>

  <!-- Bar chart (raw count) -->
  <rect x="90" y="310" width="30" height="40" fill="#6366f1" fill-opacity="0.6" rx="2"/>
  <rect x="140" y="320" width="30" height="30" fill="#6366f1" fill-opacity="0.6" rx="2"/>
  <rect x="190" y="330" width="30" height="20" fill="#6366f1" fill-opacity="0.6" rx="2"/>
  <rect x="240" y="335" width="30" height="15" fill="#6366f1" fill-opacity="0.6" rx="2"/>
  <rect x="290" y="315" width="30" height="35" fill="#6366f1" fill-opacity="0.6" rx="2"/>
  <rect x="340" y="325" width="30" height="25" fill="#6366f1" fill-opacity="0.6" rx="2"/>
  <rect x="390" y="340" width="30" height="10" fill="#6366f1" fill-opacity="0.6" rx="2"/>
  <rect x="440" y="318" width="30" height="32" fill="#f59e0b" fill-opacity="0.6" rx="2"/>
  <rect x="490" y="328" width="30" height="22" fill="#f59e0b" fill-opacity="0.6" rx="2"/>
  <rect x="540" y="322" width="30" height="28" fill="#f59e0b" fill-opacity="0.6" rx="2"/>
  <rect x="590" y="330" width="30" height="20" fill="#f59e0b" fill-opacity="0.6" rx="2"/>
  <rect x="640" y="325" width="30" height="25" fill="#f59e0b" fill-opacity="0.6" rx="2"/>

  <!-- X-axis -->
  <line x1="80" y1="352" x2="700" y2="352" stroke="#94a3b8" stroke-width="1"/>

  <!-- Legend -->
  <rect x="200" y="370" width="14" height="14" fill="#6366f1" rx="2"/>
  <text x="220" y="382" font-family="Arial, sans-serif" font-size="11" fill="#475569">SOFI</text>
  <rect x="300" y="370" width="14" height="14" fill="#f59e0b" rx="2"/>
  <text x="320" y="382" font-family="Arial, sans-serif" font-size="11" fill="#475569">IONQ</text>
  <polygon points="415,377 410,370 420,370" fill="#ef4444"/>
  <text x="425" y="382" font-family="Arial, sans-serif" font-size="11" fill="#475569">Bottom Candidate</text>

  <!-- Footer -->
  <text x="400" y="397" text-anchor="middle" font-family="Arial, sans-serif" font-size="10" fill="#94a3b8">MakeoverMonday &#xB7; Python &#xB7; Plotly</text>
</svg>
