<?xml version="1.0" encoding="UTF-8"?>
<svg xmlns="http://www.w3.org/2000/svg" viewBox="0 0 600 400">
  <rect width="600" height="400" fill="#f8fafc"/>
  <rect x="40" y="30" width="520" height="340" rx="12" fill="white" stroke="#e2e8f0" stroke-width="1"/>

  <text x="60" y="68" font-family="sans-serif" font-size="18" font-weight="bold" fill="#1e293b">Global Oil Production</text>
  <text x="60" y="92" font-family="sans-serif" font-size="13" fill="#64748b">By country (Our World in Data)</text>

  <!-- Line chart hint: top producers -->
  <polyline points="60,260 120,240 180,220 240,200 300,185 360,175 420,168 480,162 520,158"
    fill="none" stroke="#b45309" stroke-width="3" stroke-linecap="round"/>
  <polyline points="60,275 140,268 220,255 300,235 380,215 460,200 520,192"
    fill="none" stroke="#64748b" stroke-width="2" stroke-linecap="round"/>
  <polyline points="60,288 160,285 260,278 360,268 460,255 520,248"
    fill="none" stroke="#0f766e" stroke-width="2" stroke-linecap="round"/>

  <text x="60" y="150" font-family="sans-serif" font-size="26" font-weight="bold" fill="#b45309">TWh</text>
  <text x="130" y="150" font-family="sans-serif" font-size="13" fill="#64748b">Energy-equivalent oil output</text>

  <text x="60" y="338" font-family="sans-serif" font-size="10" fill="#94a3b8">Makeover Monday (OWID / Energy Institute)</text>
</svg>
