<?xml version="1.0" encoding="UTF-8"?>
<svg xmlns="http://www.w3.org/2000/svg" width="800" height="400" viewBox="0 0 800 400">
  <defs>
    <linearGradient id="bgTt" x1="0%" y1="0%" x2="100%" y2="100%">
      <stop offset="0%" style="stop-color:#f8fafc;stop-opacity:1" />
      <stop offset="100%" style="stop-color:#e2e8f0;stop-opacity:1" />
    </linearGradient>
  </defs>
  <rect fill="url(#bgTt)" width="800" height="400"/>

  <!-- Title -->
  <text x="400" y="42" text-anchor="middle" font-family="Arial, sans-serif" font-size="22" font-weight="bold" fill="#1e293b">Reddit Comment Counts</text>
  <text x="400" y="68" text-anchor="middle" font-family="Arial, sans-serif" font-size="14" fill="#64748b">SOFI vs IONQ &#xB7; Daily Discussion Volume</text>

  <!-- Simplified bar chart illustration -->
  <!-- SOFI bars (purple) -->
  <rect x="100" y="130" width="40" height="180" fill="#6366f1" fill-opacity="0.85" rx="3"/>
  <rect x="180" y="160" width="40" height="150" fill="#6366f1" fill-opacity="0.85" rx="3"/>
  <rect x="260" y="100" width="40" height="210" fill="#6366f1" fill-opacity="0.85" rx="3"/>
  <rect x="340" y="145" width="40" height="165" fill="#6366f1" fill-opacity="0.85" rx="3"/>
  <rect x="420" y="170" width="40" height="140" fill="#6366f1" fill-opacity="0.85" rx="3"/>
  <rect x="500" y="110" width="40" height="200" fill="#6366f1" fill-opacity="0.85" rx="3"/>
  <rect x="580" y="155" width="40" height="155" fill="#6366f1" fill-opacity="0.85" rx="3"/>

  <!-- IONQ bars (amber) -->
  <rect x="145" y="260" width="40" height="50" fill="#f59e0b" fill-opacity="0.85" rx="3"/>
  <rect x="225" y="275" width="40" height="35" fill="#f59e0b" fill-opacity="0.85" rx="3"/>
  <rect x="305" y="250" width="40" height="60" fill="#f59e0b" fill-opacity="0.85" rx="3"/>
  <rect x="385" y="280" width="40" height="30" fill="#f59e0b" fill-opacity="0.85" rx="3"/>
  <rect x="465" y="270" width="40" height="40" fill="#f59e0b" fill-opacity="0.85" rx="3"/>
  <rect x="545" y="255" width="40" height="55" fill="#f59e0b" fill-opacity="0.85" rx="3"/>
  <rect x="625" y="265" width="40" height="45" fill="#f59e0b" fill-opacity="0.85" rx="3"/>

  <!-- X-axis line -->
  <line x1="80" y1="312" x2="700" y2="312" stroke="#94a3b8" stroke-width="1"/>

  <!-- Legend -->
  <rect x="280" y="340" width="16" height="16" fill="#6366f1" rx="2"/>
  <text x="302" y="353" font-family="Arial, sans-serif" font-size="12" fill="#475569">SOFI</text>
  <rect x="420" y="340" width="16" height="16" fill="#f59e0b" rx="2"/>
  <text x="442" y="353" font-family="Arial, sans-serif" font-size="12" fill="#475569">IONQ</text>

  <!-- Footer -->
  <text x="400" y="385" text-anchor="middle" font-family="Arial, sans-serif" font-size="11" fill="#94a3b8">TidyTuesday &#xB7; R &#xB7; ggplot2</text>
</svg>
